<?xml version="1.0" standalone="no"?>
<!DOCTYPE svg PUBLIC "-//W3C//DTD SVG 20010904//EN"
 "http://www.w3.org/TR/2001/REC-SVG-20010904/DTD/svg10.dtd">
<svg version="1.0" xmlns="http://www.w3.org/2000/svg"
  width="13px" height="18px" viewBox="100 75 200 200">

<g transform="translate(0,400) scale(0.100000,-0.100000)"
fill="#2C2C2C" stroke="none">
<path d="M1240 2871 l0 -611 -175 0 -175 0 0 -175 0 -175 175 0 175 0 0 -85 0
-85 -175 0 -175 0 0 -130 0 -130 175 0 175 0 0 -220 0 -220 195 0 195 0 0 220
0 220 325 0 325 0 0 130 0 130 -325 0 -325 0 0 85 0 85 173 0 c396 0 588 61
772 245 118 119 178 234 211 403 19 97 18 264 -2 360 -45 225 -199 404 -420
488 -161 61 -210 66 -686 71 l-438 5 0 -611z m789 248 c146 -23 244 -79 299
-169 41 -69 52 -105 59 -202 18 -236 -95 -400 -322 -466 -32 -9 -119 -16 -242
-19 l-193 -5 0 436 0 436 168 0 c92 0 196 -5 231 -11z"/>
</g>
</svg>
